<svg width="1150" height="312" viewBox="0 0 1150 312" fill="none" xmlns="http://www.w3.org/2000/svg">
<path d="M17.6641 169.737C12.0321 169.737 7.68004 168.201 4.60803 165.129C1.53601 161.929 0 157.449 0 151.689V48.9681C0 43.0801 1.53601 38.6001 4.60803 35.5281C7.68004 32.4561 12.0321 30.92 17.6641 30.92C23.4241 30.92 27.7761 32.4561 30.7202 35.5281C33.7922 38.6001 35.3282 43.0801 35.3282 48.9681V151.689C35.3282 157.449 33.8562 161.929 30.9122 165.129C27.9681 168.201 23.5521 169.737 17.6641 169.737Z" fill="url(#paint0_linear_6_401)"/>
<path d="M77.6689 168.009C72.0369 168.009 67.6209 166.473 64.4208 163.401C61.3488 160.201 59.8128 155.785 59.8128 150.153V50.3121C59.8128 44.5521 61.3488 40.1361 64.4208 37.0641C67.4929 33.9921 71.8449 32.4561 77.4769 32.4561C83.2369 32.4561 87.589 33.9921 90.533 37.0641C93.605 40.1361 95.141 44.5521 95.141 50.3121V138.633H141.989C146.853 138.633 150.565 139.913 153.125 142.473C155.813 144.905 157.157 148.489 157.157 153.225C157.157 157.961 155.813 161.609 153.125 164.169C150.565 166.729 146.853 168.009 141.989 168.009H77.6689Z" fill="url(#paint1_linear_6_401)"/>
<path d="M189.982 168.009C184.35 168.009 179.934 166.473 176.734 163.401C173.662 160.201 172.126 155.785 172.126 150.153V50.3121C172.126 44.5521 173.662 40.1361 176.734 37.0641C179.806 33.9921 184.158 32.4561 189.79 32.4561C195.55 32.4561 199.902 33.9921 202.846 37.0641C205.918 40.1361 207.454 44.5521 207.454 50.3121V138.633H254.302C259.166 138.633 262.878 139.913 265.438 142.473C268.126 144.905 269.47 148.489 269.47 153.225C269.47 157.961 268.126 161.609 265.438 164.169C262.878 166.729 259.166 168.009 254.302 168.009H189.982Z" fill="url(#paint2_linear_6_401)"/>
<path d="M338.718 170.121C328.862 170.121 320.158 168.905 312.606 166.473C305.054 163.913 298.654 160.137 293.406 155.145C288.286 150.153 284.382 143.945 281.694 136.521C279.134 128.969 277.854 120.265 277.854 110.408V48.7761C277.854 42.8881 279.39 38.4721 282.462 35.5281C285.534 32.4561 289.886 30.92 295.518 30.92C301.278 30.92 305.63 32.4561 308.574 35.5281C311.646 38.4721 313.182 42.8881 313.182 48.7761V110.792C313.182 120.649 315.358 128.073 319.71 133.065C324.062 138.057 330.398 140.553 338.718 140.553C346.91 140.553 353.182 138.057 357.534 133.065C361.886 128.073 364.062 120.649 364.062 110.792V48.7761C364.062 42.8881 365.534 38.4721 368.478 35.5281C371.55 32.4561 375.902 30.92 381.535 30.92C387.167 30.92 391.455 32.4561 394.399 35.5281C397.343 38.4721 398.815 42.8881 398.815 48.7761V110.408C398.815 123.593 396.511 134.665 391.903 143.625C387.423 152.457 380.703 159.113 371.742 163.593C362.782 167.945 351.774 170.121 338.718 170.121Z" fill="url(#paint3_linear_6_401)"/>
<path d="M438.76 169.737C433.64 169.737 429.672 168.329 426.856 165.513C424.168 162.697 422.824 158.729 422.824 153.609V47.0481C422.824 41.8001 424.296 37.8321 427.24 35.1441C430.184 32.3281 434.344 30.92 439.72 30.92C444.2 30.92 447.72 31.816 450.28 33.6081C452.968 35.2721 455.4 38.0881 457.576 42.0561L498.856 116.168H492.136L533.224 42.0561C535.528 38.0881 537.96 35.2721 540.52 33.6081C543.208 31.816 546.792 30.92 551.272 30.92C556.392 30.92 560.296 32.3281 562.984 35.1441C565.8 37.8321 567.208 41.8001 567.208 47.0481V153.609C567.208 158.729 565.865 162.697 563.176 165.513C560.488 168.329 556.52 169.737 551.272 169.737C546.152 169.737 542.184 168.329 539.368 165.513C536.68 162.697 535.336 158.729 535.336 153.609V87.5603H539.368L508.456 141.321C506.664 144.137 504.744 146.249 502.696 147.657C500.776 149.065 498.152 149.769 494.824 149.769C491.624 149.769 489 149.065 486.952 147.657C484.904 146.249 483.048 144.137 481.384 141.321L450.28 87.3683H454.696V153.609C454.696 158.729 453.352 162.697 450.664 165.513C447.976 168.329 444.008 169.737 438.76 169.737Z" fill="url(#paint4_linear_6_401)"/>
<path d="M609.792 169.737C604.16 169.737 599.808 168.201 596.736 165.129C593.664 161.929 592.128 157.449 592.128 151.689V48.9681C592.128 43.0801 593.664 38.6001 596.736 35.5281C599.808 32.4561 604.16 30.92 609.792 30.92C615.552 30.92 619.904 32.4561 622.848 35.5281C625.92 38.6001 627.456 43.0801 627.456 48.9681V151.689C627.456 157.449 625.984 161.929 623.04 165.129C620.096 168.201 615.68 169.737 609.792 169.737Z" fill="url(#paint5_linear_6_401)"/>
<path d="M668.453 169.737C663.077 169.737 658.981 168.329 656.165 165.513C653.349 162.697 651.941 158.537 651.941 153.033V48.3921C651.941 42.7601 653.349 38.4721 656.165 35.5281C658.981 32.4561 662.693 30.92 667.301 30.92C671.397 30.92 674.597 31.688 676.901 33.2241C679.205 34.7601 681.765 37.3201 684.581 40.9041L745.445 116.936H740.069V47.4321C740.069 42.0561 741.413 37.9601 744.101 35.1441C746.917 32.3281 751.013 30.92 756.389 30.92C761.766 30.92 765.798 32.3281 768.486 35.1441C771.302 37.9601 772.71 42.0561 772.71 47.4321V153.801C772.71 158.665 771.43 162.569 768.87 165.513C766.31 168.329 762.854 169.737 758.501 169.737C754.149 169.737 750.693 168.969 748.133 167.433C745.701 165.769 743.077 163.209 740.261 159.753L679.397 83.5283H684.773V153.033C684.773 158.537 683.365 162.697 680.549 165.513C677.861 168.329 673.829 169.737 668.453 169.737Z" fill="url(#paint6_linear_6_401)"/>
<path d="M803.778 169.737C799.81 169.737 796.482 168.841 793.794 167.049C791.106 165.129 789.442 162.569 788.802 159.369C788.162 156.041 788.738 152.329 790.53 148.233L838.338 45.3201C840.642 40.3281 843.458 36.6801 846.786 34.3761C850.242 32.0721 854.146 30.92 858.498 30.92C862.85 30.92 866.626 32.0721 869.826 34.3761C873.154 36.6801 876.034 40.3281 878.466 45.3201L926.274 148.233C928.322 152.329 929.026 156.041 928.386 159.369C927.874 162.697 926.274 165.257 923.586 167.049C921.026 168.841 917.826 169.737 913.986 169.737C908.866 169.737 904.898 168.585 902.082 166.281C899.394 163.977 896.962 160.265 894.786 155.145L884.418 130.761L897.858 140.553H818.754L832.386 130.761L822.018 155.145C819.714 160.265 817.346 163.977 814.914 166.281C812.482 168.585 808.77 169.737 803.778 169.737ZM858.114 69.5122L835.842 122.697L830.466 113.48H886.338L880.962 122.697L858.498 69.5122H858.114Z" fill="url(#paint7_linear_6_401)"/>
<path d="M978.229 169.737C972.597 169.737 968.245 168.201 965.173 165.129C962.101 161.929 960.565 157.513 960.565 151.881V61.4482H930.42C925.684 61.4482 922.036 60.2322 919.476 57.8002C917.044 55.2402 915.828 51.6562 915.828 47.0481C915.828 42.3121 917.044 38.7281 919.476 36.2961C922.036 33.8641 925.684 32.6481 930.42 32.6481H1026.04C1030.77 32.6481 1034.36 33.8641 1036.79 36.2961C1039.35 38.7281 1040.63 42.3121 1040.63 47.0481C1040.63 51.6562 1039.35 55.2402 1036.79 57.8002C1034.36 60.2322 1030.77 61.4482 1026.04 61.4482H995.893V151.881C995.893 157.513 994.421 161.929 991.477 165.129C988.533 168.201 984.117 169.737 978.229 169.737Z" fill="url(#paint8_linear_6_401)"/>
<path d="M1070.69 168.009C1064.67 168.009 1060.06 166.473 1056.86 163.401C1053.79 160.201 1052.26 155.657 1052.26 149.769V50.8882C1052.26 45.0001 1053.79 40.5201 1056.86 37.4481C1060.06 34.2481 1064.67 32.6481 1070.69 32.6481H1135.78C1140.38 32.6481 1143.84 33.8001 1146.14 36.1041C1148.45 38.4081 1149.6 41.7361 1149.6 46.0881C1149.6 50.5681 1148.45 54.0242 1146.14 56.4562C1143.84 58.7602 1140.38 59.9122 1135.78 59.9122H1086.05V85.6403H1131.55C1136.03 85.6403 1139.42 86.7923 1141.73 89.0963C1144.16 91.4004 1145.38 94.7924 1145.38 99.2724C1145.38 103.752 1144.16 107.144 1141.73 109.448C1139.42 111.752 1136.03 112.904 1131.55 112.904H1086.05V140.745H1135.78C1140.38 140.745 1143.84 141.961 1146.14 144.393C1148.45 146.697 1149.6 150.025 1149.6 154.377C1149.6 158.857 1148.45 162.249 1146.14 164.553C1143.84 166.857 1140.38 168.009 1135.78 168.009H1070.69Z" fill="url(#paint9_linear_6_401)"/>
<path d="M233.134 311.154C229.976 311.154 227.416 310.428 225.454 308.978C223.491 307.442 221.955 305.095 220.846 301.938L195.886 232.433C194.52 228.593 194.734 225.351 196.526 222.705C198.403 219.975 201.688 218.609 206.382 218.609C209.539 218.609 212.014 219.377 213.806 220.913C215.598 222.364 217.006 224.668 218.03 227.825L237.102 285.042H231.086L251.566 227.825C252.761 224.668 254.254 222.364 256.046 220.913C257.838 219.377 260.142 218.609 262.958 218.609C265.774 218.609 268.035 219.377 269.742 220.913C271.449 222.364 272.857 224.711 273.966 227.953L293.166 285.042H288.046L307.63 227.825C308.654 224.668 310.02 222.364 311.726 220.913C313.518 219.377 315.993 218.609 319.15 218.609C323.076 218.609 325.934 219.975 327.726 222.705C329.604 225.351 329.817 228.593 328.366 232.433L303.15 302.066C302.041 305.138 300.505 307.442 298.542 308.978C296.665 310.428 294.147 311.154 290.99 311.154C287.747 311.154 285.145 310.428 283.182 308.978C281.305 307.442 279.811 305.095 278.702 301.938L260.654 251.249H263.854L245.422 302.066C244.227 305.138 242.691 307.442 240.814 308.978C238.937 310.428 236.377 311.154 233.134 311.154Z" fill="url(#paint10_linear_6_401)"/>
<path d="M354.213 311.154C350.459 311.154 347.557 310.13 345.509 308.082C343.461 305.948 342.437 302.962 342.437 299.122V230.641C342.437 226.716 343.461 223.729 345.509 221.681C347.557 219.633 350.459 218.609 354.213 218.609C358.053 218.609 360.955 219.633 362.918 221.681C364.966 223.729 365.99 226.716 365.99 230.641V299.122C365.99 302.962 365.008 305.948 363.046 308.082C361.083 310.13 358.139 311.154 354.213 311.154Z" fill="url(#paint11_linear_6_401)"/>
<path d="M415.849 311.41C412.435 311.41 408.851 311.154 405.097 310.642C401.427 310.215 397.929 309.532 394.601 308.594C391.273 307.655 388.286 306.546 385.641 305.266C383.337 304.156 381.715 302.706 380.777 300.914C379.838 299.036 379.497 297.074 379.753 295.026C380.009 292.978 380.734 291.186 381.929 289.65C383.123 288.028 384.702 286.962 386.665 286.45C388.627 285.852 390.846 286.108 393.321 287.218C396.563 288.754 400.233 289.948 404.329 290.802C408.425 291.655 412.265 292.082 415.849 292.082C421.481 292.082 425.406 291.356 427.625 289.906C429.929 288.37 431.081 286.492 431.081 284.274C431.081 282.311 430.27 280.732 428.649 279.538C427.113 278.343 424.339 277.319 420.329 276.466L405.353 273.266C397.161 271.559 391.059 268.572 387.049 264.306C383.038 260.039 381.033 254.535 381.033 247.793C381.033 243.356 381.929 239.345 383.721 235.761C385.598 232.092 388.201 228.977 391.529 226.417C394.942 223.857 398.953 221.895 403.561 220.529C408.254 219.079 413.459 218.353 419.177 218.353C423.614 218.353 428.094 218.865 432.617 219.889C437.225 220.828 441.193 222.279 444.521 224.241C446.484 225.265 447.892 226.673 448.745 228.465C449.598 230.257 449.94 232.135 449.769 234.097C449.598 235.975 448.916 237.639 447.721 239.089C446.612 240.54 445.076 241.521 443.113 242.033C441.236 242.46 438.974 242.119 436.329 241.009C433.854 239.9 431.038 239.089 427.881 238.577C424.809 237.98 421.822 237.681 418.921 237.681C415.763 237.681 413.075 238.065 410.857 238.833C408.638 239.516 406.931 240.54 405.737 241.905C404.627 243.271 404.073 244.849 404.073 246.641C404.073 248.433 404.798 249.969 406.249 251.249C407.785 252.444 410.558 253.468 414.569 254.321L429.417 257.521C437.694 259.313 443.881 262.257 447.977 266.354C452.073 270.45 454.121 275.783 454.121 282.354C454.121 286.791 453.225 290.802 451.433 294.386C449.641 297.97 447.081 301.042 443.753 303.602C440.425 306.076 436.414 307.996 431.721 309.362C427.027 310.727 421.737 311.41 415.849 311.41Z" fill="url(#paint12_linear_6_401)"/>
<path d="M511.256 311.41C501.272 311.41 492.696 309.49 485.528 305.65C478.36 301.81 472.856 296.391 469.016 289.394C465.261 282.396 463.384 274.204 463.384 264.818C463.384 257.82 464.451 251.463 466.584 245.745C468.803 240.028 471.96 235.121 476.056 231.025C480.237 226.929 485.272 223.815 491.16 221.681C497.134 219.463 503.832 218.353 511.256 218.353C515.182 218.353 519.235 218.823 523.416 219.761C527.683 220.615 531.438 221.937 534.68 223.729C537.07 225.009 538.734 226.631 539.672 228.593C540.611 230.556 540.91 232.561 540.568 234.609C540.312 236.657 539.587 238.492 538.392 240.113C537.198 241.735 535.662 242.844 533.784 243.441C531.907 243.953 529.859 243.655 527.64 242.545C525.08 241.351 522.52 240.455 519.96 239.857C517.486 239.175 514.883 238.833 512.152 238.833C506.862 238.833 502.424 239.857 498.84 241.905C495.342 243.868 492.696 246.769 490.904 250.609C489.112 254.449 488.216 259.185 488.216 264.818C488.216 270.45 489.112 275.228 490.904 279.154C492.696 282.994 495.342 285.938 498.84 287.986C502.424 289.948 506.862 290.93 512.152 290.93C514.371 290.93 516.76 290.674 519.32 290.162C521.88 289.564 524.398 288.668 526.872 287.474C529.432 286.364 531.694 286.066 533.656 286.578C535.704 287.09 537.326 288.114 538.52 289.65C539.8 291.186 540.611 292.978 540.952 295.026C541.294 296.988 540.995 298.951 540.056 300.914C539.203 302.876 537.667 304.455 535.448 305.65C532.462 307.442 528.75 308.85 524.312 309.874C519.96 310.898 515.608 311.41 511.256 311.41Z" fill="url(#paint13_linear_6_401)"/>
<path d="M594.334 311.41C585.203 311.41 577.182 309.49 570.27 305.65C563.358 301.724 557.982 296.263 554.142 289.266C550.387 282.268 548.509 274.119 548.509 264.818C548.509 257.82 549.576 251.463 551.709 245.745C553.928 240.028 557.043 235.121 561.054 231.025C565.15 226.929 570.014 223.815 575.646 221.681C581.278 219.463 587.507 218.353 594.334 218.353C603.464 218.353 611.443 220.273 618.27 224.113C625.182 227.953 630.558 233.372 634.398 240.369C638.238 247.281 640.158 255.431 640.158 264.818C640.158 271.815 639.049 278.172 636.83 283.89C634.697 289.607 631.582 294.556 627.486 298.738C623.475 302.834 618.654 305.991 613.022 308.21C607.39 310.343 601.16 311.41 594.334 311.41ZM594.334 291.698C598.856 291.698 602.696 290.631 605.854 288.498C609.011 286.364 611.443 283.292 613.15 279.282C614.856 275.271 615.71 270.45 615.71 264.818C615.71 256.369 613.832 249.799 610.078 245.105C606.323 240.412 601.075 238.065 594.334 238.065C589.896 238.065 586.056 239.132 582.814 241.265C579.656 243.313 577.224 246.343 575.518 250.353C573.811 254.279 572.958 259.1 572.958 264.818C572.958 273.266 574.835 279.879 578.59 284.658C582.344 289.351 587.592 291.698 594.334 291.698Z" fill="url(#paint14_linear_6_401)"/>
<path d="M665.072 311.154C661.488 311.154 658.757 310.215 656.88 308.338C655.003 306.46 654.064 303.687 654.064 300.018V230.257C654.064 226.503 655.003 223.644 656.88 221.681C658.757 219.633 661.232 218.609 664.304 218.609C667.035 218.609 669.168 219.121 670.704 220.145C672.24 221.169 673.947 222.876 675.824 225.265L716.4 275.954H712.816V229.617C712.816 226.033 713.712 223.303 715.504 221.425C717.382 219.548 720.112 218.609 723.696 218.609C727.28 218.609 729.968 219.548 731.76 221.425C733.638 223.303 734.576 226.033 734.576 229.617V300.53C734.576 303.772 733.723 306.375 732.016 308.338C730.31 310.215 728.006 311.154 725.104 311.154C722.203 311.154 719.899 310.642 718.192 309.618C716.571 308.508 714.822 306.802 712.944 304.498L672.368 253.681H675.952V300.018C675.952 303.687 675.013 306.46 673.136 308.338C671.344 310.215 668.656 311.154 665.072 311.154Z" fill="url(#paint15_linear_6_401)"/>
<path d="M784.601 311.41C781.187 311.41 777.603 311.154 773.849 310.642C770.179 310.215 766.681 309.532 763.353 308.594C760.025 307.655 757.038 306.546 754.393 305.266C752.089 304.156 750.467 302.706 749.529 300.914C748.59 299.036 748.249 297.074 748.505 295.026C748.761 292.978 749.486 291.186 750.681 289.65C751.875 288.028 753.454 286.962 755.417 286.45C757.379 285.852 759.598 286.108 762.073 287.218C765.315 288.754 768.985 289.948 773.081 290.802C777.177 291.655 781.017 292.082 784.601 292.082C790.233 292.082 794.158 291.356 796.377 289.906C798.681 288.37 799.833 286.492 799.833 284.274C799.833 282.311 799.022 280.732 797.401 279.538C795.865 278.343 793.091 277.319 789.081 276.466L774.105 273.266C765.913 271.559 759.811 268.572 755.801 264.306C751.79 260.039 749.785 254.535 749.785 247.793C749.785 243.356 750.681 239.345 752.473 235.761C754.35 232.092 756.953 228.977 760.281 226.417C763.694 223.857 767.705 221.895 772.313 220.529C777.006 219.079 782.211 218.353 787.929 218.353C792.366 218.353 796.846 218.865 801.369 219.889C805.977 220.828 809.945 222.279 813.273 224.241C815.236 225.265 816.644 226.673 817.497 228.465C818.35 230.257 818.692 232.135 818.521 234.097C818.35 235.975 817.668 237.639 816.473 239.089C815.364 240.54 813.828 241.521 811.865 242.033C809.988 242.46 807.726 242.119 805.081 241.009C802.606 239.9 799.79 239.089 796.633 238.577C793.561 237.98 790.574 237.681 787.673 237.681C784.515 237.681 781.827 238.065 779.609 238.833C777.39 239.516 775.683 240.54 774.489 241.905C773.379 243.271 772.825 244.849 772.825 246.641C772.825 248.433 773.55 249.969 775.001 251.249C776.537 252.444 779.31 253.468 783.321 254.321L798.169 257.521C806.446 259.313 812.633 262.257 816.729 266.354C820.825 270.45 822.873 275.783 822.873 282.354C822.873 286.791 821.977 290.802 820.185 294.386C818.393 297.97 815.833 301.042 812.505 303.602C809.177 306.076 805.166 307.996 800.473 309.362C795.779 310.727 790.489 311.41 784.601 311.41Z" fill="url(#paint16_linear_6_401)"/>
<path d="M846.216 311.154C842.461 311.154 839.56 310.13 837.512 308.082C835.464 305.948 834.44 302.962 834.44 299.122V230.641C834.44 226.716 835.464 223.729 837.512 221.681C839.56 219.633 842.461 218.609 846.216 218.609C850.056 218.609 852.957 219.633 854.92 221.681C856.968 223.729 857.992 226.716 857.992 230.641V299.122C857.992 302.962 857.011 305.948 855.048 308.082C853.085 310.13 850.141 311.154 846.216 311.154Z" fill="url(#paint17_linear_6_401)"/>
<path d="M885.323 311.154C881.739 311.154 879.009 310.215 877.131 308.338C875.254 306.46 874.315 303.687 874.315 300.018V230.257C874.315 226.503 875.254 223.644 877.131 221.681C879.009 219.633 881.483 218.609 884.555 218.609C887.286 218.609 889.419 219.121 890.955 220.145C892.491 221.169 894.198 222.876 896.075 225.265L936.652 275.954H933.067V229.617C933.067 226.033 933.964 223.303 935.756 221.425C937.633 219.548 940.364 218.609 943.948 218.609C947.532 218.609 950.22 219.548 952.012 221.425C953.889 223.303 954.828 226.033 954.828 229.617V300.53C954.828 303.772 953.974 306.375 952.268 308.338C950.561 310.215 948.257 311.154 945.356 311.154C942.454 311.154 940.15 310.642 938.444 309.618C936.822 308.508 935.073 306.802 933.195 304.498L892.619 253.681H896.203V300.018C896.203 303.687 895.265 306.46 893.387 308.338C891.595 310.215 888.907 311.154 885.323 311.154Z" fill="url(#paint18_linear_6_401)"/>
<path d="M839.81 41.9996C843.898 33.6207 850.217 29.7633 858.811 29.9996C867.404 29.7633 873.723 33.6207 877.811 41.9996C897.811 82.9997 910.811 112 927.811 150C933.519 162.76 923.811 170 914.811 170C900.811 170 876.811 140 876.811 113H858.811H840.81C840.81 140 816.81 170 802.81 170C793.81 170 784.102 162.76 789.81 150C806.81 112 819.81 82.9997 839.81 41.9996Z" fill="#04A5BE"/>
<path d="M768.179 57.7385C759.254 76.8779 756.617 98.3515 760.647 119.082L858.81 100.001L768.179 57.7385Z" fill="url(#paint19_radial_6_401)" fill-opacity="0.63"/>
<path d="M949.442 57.7385C958.367 76.8779 961.003 98.3515 956.974 119.082L858.811 100.001L949.442 57.7385Z" fill="url(#paint20_radial_6_401)" fill-opacity="0.63"/>
<ellipse cx="858.81" cy="81.0004" rx="18.0001" ry="13.0001" fill="#7D7D7D"/>
<ellipse cx="858.81" cy="85.9999" rx="24.0001" ry="10.0001" fill="#939393"/>
<ellipse cx="858.81" cy="90.0004" rx="24.0001" ry="10.0001" fill="#6B6B6B"/>
<path d="M876.81 93.122C876.81 99.2645 876.81 106 876.81 106C870.033 106 840.81 106 840.81 106C840.81 106 840.81 95.0771 840.81 93.122C840.81 86.9795 848.869 82 858.81 82C868.751 82 876.81 86.9795 876.81 93.122Z" fill="url(#paint21_linear_6_401)"/>
<ellipse cx="858.81" cy="110" rx="24.0001" ry="10.0001" fill="#939393"/>
<ellipse cx="858.81" cy="116" rx="24.0001" ry="10.0001" fill="#6B6B6B"/>
<path d="M839.95 116.18C834.339 143.625 810.81 177 794.81 168C827.95 187.392 889.691 187.392 922.831 168C906.831 177 883.422 143.625 877.811 116.18C872.811 110 844.81 110 839.95 116.18Z" fill="white"/>
<path opacity="0.1" d="M922.811 168.001C922.619 168.109 922.427 168.211 922.233 168.306C905.427 177.156 888.675 183.74 876.811 161.001C871.39 150.612 863.879 123.532 866.81 112.061C869.81 112.001 876.786 114.172 877.811 116.18C883.355 143.296 906.253 176.202 922.233 168.306C922.425 168.205 922.618 168.103 922.811 168.001Z" fill="black"/>
<defs>
<linearGradient id="paint0_linear_6_401" x1="7.23606e-08" y1="30.5999" x2="1758.01" y2="30.5999" gradientUnits="userSpaceOnUse">
<stop stop-color="#037182"/>
<stop offset="0.489583" stop-color="#04A1B9"/>
<stop offset="1" stop-color="#037182"/>
</linearGradient>
<linearGradient id="paint1_linear_6_401" x1="7.23606e-08" y1="30.5999" x2="1758.01" y2="30.5999" gradientUnits="userSpaceOnUse">
<stop stop-color="#037182"/>
<stop offset="0.489583" stop-color="#04A1B9"/>
<stop offset="1" stop-color="#037182"/>
</linearGradient>
<linearGradient id="paint2_linear_6_401" x1="7.23606e-08" y1="30.5999" x2="1758.01" y2="30.5999" gradientUnits="userSpaceOnUse">
<stop stop-color="#037182"/>
<stop offset="0.489583" stop-color="#04A1B9"/>
<stop offset="1" stop-color="#037182"/>
</linearGradient>
<linearGradient id="paint3_linear_6_401" x1="7.23606e-08" y1="30.5999" x2="1758.01" y2="30.5999" gradientUnits="userSpaceOnUse">
<stop stop-color="#037182"/>
<stop offset="0.489583" stop-color="#04A1B9"/>
<stop offset="1" stop-color="#037182"/>
</linearGradient>
<linearGradient id="paint4_linear_6_401" x1="7.23606e-08" y1="30.5999" x2="1758.01" y2="30.5999" gradientUnits="userSpaceOnUse">
<stop stop-color="#037182"/>
<stop offset="0.489583" stop-color="#04A1B9"/>
<stop offset="1" stop-color="#037182"/>
</linearGradient>
<linearGradient id="paint5_linear_6_401" x1="7.23606e-08" y1="30.5999" x2="1758.01" y2="30.5999" gradientUnits="userSpaceOnUse">
<stop stop-color="#037182"/>
<stop offset="0.489583" stop-color="#04A1B9"/>
<stop offset="1" stop-color="#037182"/>
</linearGradient>
<linearGradient id="paint6_linear_6_401" x1="7.23606e-08" y1="30.5999" x2="1758.01" y2="30.5999" gradientUnits="userSpaceOnUse">
<stop stop-color="#037182"/>
<stop offset="0.489583" stop-color="#04A1B9"/>
<stop offset="1" stop-color="#037182"/>
</linearGradient>
<linearGradient id="paint7_linear_6_401" x1="7.23606e-08" y1="30.5999" x2="1758.01" y2="30.5999" gradientUnits="userSpaceOnUse">
<stop stop-color="#037182"/>
<stop offset="0.489583" stop-color="#04A1B9"/>
<stop offset="1" stop-color="#037182"/>
</linearGradient>
<linearGradient id="paint8_linear_6_401" x1="7.23606e-08" y1="30.5999" x2="1758.01" y2="30.5999" gradientUnits="userSpaceOnUse">
<stop stop-color="#037182"/>
<stop offset="0.489583" stop-color="#04A1B9"/>
<stop offset="1" stop-color="#037182"/>
</linearGradient>
<linearGradient id="paint9_linear_6_401" x1="7.23606e-08" y1="30.5999" x2="1758.01" y2="30.5999" gradientUnits="userSpaceOnUse">
<stop stop-color="#037182"/>
<stop offset="0.489583" stop-color="#04A1B9"/>
<stop offset="1" stop-color="#037182"/>
</linearGradient>
<linearGradient id="paint10_linear_6_401" x1="775.873" y1="182.001" x2="775.873" y2="354.002" gradientUnits="userSpaceOnUse">
<stop stop-color="#F02405"/>
<stop offset="1" stop-color="#BE1D04"/>
</linearGradient>
<linearGradient id="paint11_linear_6_401" x1="775.873" y1="182.001" x2="775.873" y2="354.002" gradientUnits="userSpaceOnUse">
<stop stop-color="#F02405"/>
<stop offset="1" stop-color="#BE1D04"/>
</linearGradient>
<linearGradient id="paint12_linear_6_401" x1="775.873" y1="182.001" x2="775.873" y2="354.002" gradientUnits="userSpaceOnUse">
<stop stop-color="#F02405"/>
<stop offset="1" stop-color="#BE1D04"/>
</linearGradient>
<linearGradient id="paint13_linear_6_401" x1="775.873" y1="182.001" x2="775.873" y2="354.002" gradientUnits="userSpaceOnUse">
<stop stop-color="#F02405"/>
<stop offset="1" stop-color="#BE1D04"/>
</linearGradient>
<linearGradient id="paint14_linear_6_401" x1="775.873" y1="182.001" x2="775.873" y2="354.002" gradientUnits="userSpaceOnUse">
<stop stop-color="#F02405"/>
<stop offset="1" stop-color="#BE1D04"/>
</linearGradient>
<linearGradient id="paint15_linear_6_401" x1="775.873" y1="182.001" x2="775.873" y2="354.002" gradientUnits="userSpaceOnUse">
<stop stop-color="#F02405"/>
<stop offset="1" stop-color="#BE1D04"/>
</linearGradient>
<linearGradient id="paint16_linear_6_401" x1="775.873" y1="182.001" x2="775.873" y2="354.002" gradientUnits="userSpaceOnUse">
<stop stop-color="#F02405"/>
<stop offset="1" stop-color="#BE1D04"/>
</linearGradient>
<linearGradient id="paint17_linear_6_401" x1="775.873" y1="182.001" x2="775.873" y2="354.002" gradientUnits="userSpaceOnUse">
<stop stop-color="#F02405"/>
<stop offset="1" stop-color="#BE1D04"/>
</linearGradient>
<linearGradient id="paint18_linear_6_401" x1="775.873" y1="182.001" x2="775.873" y2="354.002" gradientUnits="userSpaceOnUse">
<stop stop-color="#F02405"/>
<stop offset="1" stop-color="#BE1D04"/>
</linearGradient>
<radialGradient id="paint19_radial_6_401" cx="0" cy="0" r="1" gradientUnits="userSpaceOnUse" gradientTransform="translate(858.81 100.001) rotate(90) scale(100.001 100.001)">
<stop stop-color="#A4BE04"/>
<stop offset="1" stop-color="#F9FC61" stop-opacity="0"/>
</radialGradient>
<radialGradient id="paint20_radial_6_401" cx="0" cy="0" r="1" gradientUnits="userSpaceOnUse" gradientTransform="translate(858.811 100.001) rotate(90) scale(100.001 100.001)">
<stop stop-color="#A4BE04"/>
<stop offset="1" stop-color="#F9FC61" stop-opacity="0"/>
</radialGradient>
<linearGradient id="paint21_linear_6_401" x1="858.81" y1="82" x2="858.81" y2="106" gradientUnits="userSpaceOnUse">
<stop stop-color="#05A8FA"/>
<stop offset="1" stop-color="#036CA0"/>
</linearGradient>
</defs>
</svg>
